<svg id="Слой_1" data-name="Слой 1" xmlns="http://www.w3.org/2000/svg" viewBox="0 0 792 197.45"><defs><style>.cls-1{fill:#353535;stroke:#353535;}.cls-1,.cls-3{stroke-miterlimit:10;stroke-width:2px;}.cls-2{fill:#c64141;}.cls-3{fill:#fff;stroke:#fff;}</style></defs><title>logo</title><path class="cls-1" d="M435.9,5.77a59.74,59.74,0,0,1-13.51,15.72A104,104,0,0,1,403.9,33.66a159.62,159.62,0,0,1-21.64,9.24q-11.46,4-23.23,6.87t-23.15,5.06Q324.51,57,314.4,58.7l-8.93,10.82Q301,75,296.38,80.35q7.11,1.89,16,4t18.41,4.74q9.56,2.59,19.43,5.76a203.21,203.21,0,0,1,19.12,7.19,135.77,135.77,0,0,1,17.38,9.09A72,72,0,0,1,401,122.69a17,17,0,0,1,1.34,1.5,2.41,2.41,0,0,1,.56,1.5,3.46,3.46,0,0,1-1.5,2.53A8.54,8.54,0,0,1,398,130a79,79,0,0,0-14.85-11.85,131,131,0,0,0-17.78-9.24q-9.41-4-19.43-7.19t-19.75-5.77q-9.72-2.61-18.73-4.74T291,86.83q-6,7.1-11.29,13.5t-9.33,11.22q-4,4.83-6.4,7.74a27,27,0,0,1-2.68,3.09l-.79.79a2.22,2.22,0,0,1-1.42.79c-1.16,0-1.74-.53-1.74-1.58a3.36,3.36,0,0,1,1.1-2.38c.11-.1.93-1.07,2.45-2.92s3.58-4.32,6.17-7.42l9-10.83q5.13-6.15,11-13.27a56.8,56.8,0,0,1-13.43-5.84q-4.89-3.16-4.9-7.27A6.64,6.64,0,0,1,271.89,67a30.41,30.41,0,0,1,8.77-4,119.58,119.58,0,0,1,13.2-3.16q7.58-1.43,16.43-2.85,6.79-8.37,13-16l11.06-13.43q4.83-5.85,7.67-9.33t3-3.63a13.44,13.44,0,0,1,1.66-1.74,3.89,3.89,0,0,1,2.6-1.26c1.37,0,2.06.58,2.06,1.73a4.07,4.07,0,0,1-1.74,3.17q-.17.15-2.92,3.47l-7.27,8.69q-4.5,5.37-10.35,12.4T316.77,56q14.22-2.37,30.1-5.77a207.59,207.59,0,0,0,31-9.24,142,142,0,0,0,28.6-14.94A82.4,82.4,0,0,0,429.1,3.24a5.35,5.35,0,0,1,.64-.79,2.13,2.13,0,0,1,1.58-.63,3.73,3.73,0,0,1,1.58.48,13,13,0,0,1,2.29,1.81C435.87,4.8,436.11,5.35,435.9,5.77Zm-127.82,54q-7,1.11-12.72,2.29t-10,2.37A28.15,28.15,0,0,0,278.93,67c-1.53.89-2.3,1.92-2.3,3.08q0,2.69,4.19,4.74a78.8,78.8,0,0,0,11.46,4.26q3.95-4.74,7.82-9.56T308.08,59.81Z" transform="translate(-5.76 -0.82)"/><path class="cls-1" d="M451.38,110.52a1.06,1.06,0,0,1-.31.79,1.73,1.73,0,0,1-.48.32q-9.79,4.43-16.43,4.42a8,8,0,0,1-6.32-2.52,41.46,41.46,0,0,1-9.24,7,20.87,20.87,0,0,1-10.19,2.84,5.38,5.38,0,0,1-3.48-1,4.38,4.38,0,0,1-1.26-3.56q0-3.17,2.92-7.74a57.42,57.42,0,0,1,7-8.85,56.56,56.56,0,0,1,8.45-7.27q4.35-3,7.19-3a2.44,2.44,0,0,1,1.5.55c.48.37.71.72.71,1s-.15.34-.47.4a6.09,6.09,0,0,1-.95.08c-1.26,0-3,.81-5.29,2.44a56.28,56.28,0,0,0-6.72,5.77,43.37,43.37,0,0,0-5.68,6.95q-2.37,3.65-2.37,6c0,2.31,1.15,3.47,3.47,3.47a13.4,13.4,0,0,0,6.4-2,37.2,37.2,0,0,0,6.72-4.82,10.91,10.91,0,0,1-1.11-5.22,15.29,15.29,0,0,1,.71-4.5,13.77,13.77,0,0,1,2-4,10.57,10.57,0,0,1,3.08-2.84,7.56,7.56,0,0,1,4-1.11q3,0,3,2.85a13.65,13.65,0,0,1-2.14,6.32,41.81,41.81,0,0,1-5.76,7.74,6,6,0,0,0,5.05,2.21,23.84,23.84,0,0,0,4.59-.47c1.58-.32,3.08-.66,4.5-1a29.65,29.65,0,0,0,3.71-1.19,17.39,17.39,0,0,0,2.37-1.1h.16a.51.51,0,0,1,.47.39A1.88,1.88,0,0,1,451.38,110.52Zm-16-11c0-1.48-.94-2.22-2.84-2.22-1.16,0-2.13.77-2.92,2.29a11,11,0,0,0-1.19,5.14,16.15,16.15,0,0,0,.16,2.37,8.64,8.64,0,0,0,.63,2.21,33.27,33.27,0,0,0,4.43-5.37A8.87,8.87,0,0,0,435.42,99.47Z" transform="translate(-5.76 -0.82)"/><path class="cls-1" d="M479.82,103.73a12.55,12.55,0,0,1-1.58,1.42c-.32.22-.95.74-1.9,1.58s-2.42,1.82-4.42,3.24-4.24,2.87-6.71,4.35a63.32,63.32,0,0,1-7.67,3.87,18.45,18.45,0,0,1-7,1.66,3.75,3.75,0,0,1-3-1.58,5.22,5.22,0,0,1-1.27-3.32,4,4,0,0,1,.4-3.24,4.94,4.94,0,0,1,2.13-1.9,3.52,3.52,0,0,1,2.53-.15,2.33,2.33,0,0,1,1.58,2,4.33,4.33,0,0,0,1,2.77,2.77,2.77,0,0,0,2.21,1.18,9.37,9.37,0,0,0,3.4-.79,37.91,37.91,0,0,0,4.11-2c1.42-.79,2.89-1.72,4.42-2.77s3-2.1,4.34-3.16q1.74-1.26,3.48-2.61t3.48-2.92a11.26,11.26,0,0,0,1.34-1,17.31,17.31,0,0,1,2.37-1.5c.89-.47,1.76-.92,2.61-1.34a4.89,4.89,0,0,1,2.05-.63c1,0,1.58.63,1.58,1.89a6.7,6.7,0,0,1-1.34,3.32q-1.35,2.05-3,4.19t-3,4.11a6.31,6.31,0,0,0-1.34,2.92c0,.95.63,1.42,1.9,1.42q2.83,0,6.71-2.84t7.82-6.32q3.94-3.48,7.59-6.32t6-2.85c.53,0,.84.19.95.56a3.69,3.69,0,0,1,.16.87,2.8,2.8,0,0,1-.32,1.26l-.63,1.26c-.32.43-.85,1.16-1.58,2.22a36.26,36.26,0,0,0-2.14,3.47c-.68,1.26-1.31,2.56-1.89,3.87a9,9,0,0,0-.87,3.56q0,2.84,3.32,2.84a15.45,15.45,0,0,0,3.87-.55c1.42-.37,2.84-.79,4.27-1.27s2.73-.94,3.94-1.42,2.14-.81,2.77-1q3-1.09,4.74-1.89a9.91,9.91,0,0,1,1.9-.79c.52,0,.79.37.79,1.1,0,.53-.16.85-.48,1l-7.11,2.85c-1.05.42-2.4,1-4,1.66s-3.39,1.34-5.29,2-3.74,1.19-5.53,1.66a19,19,0,0,1-4.74.71c-2.43,0-3.63-1.16-3.63-3.48a14.92,14.92,0,0,1,1.34-5.6c.89-2.16,1.82-4.14,2.76-5.93,0-.42-.16-.63-.47-.63a2.15,2.15,0,0,0-1.58.63c-2.21,1.79-4.48,3.53-6.79,5.21s-4.56,3.22-6.72,4.59a42.3,42.3,0,0,1-6.24,3.31,14.26,14.26,0,0,1-5.53,1.27,4.39,4.39,0,0,1-1.9-.55,1.68,1.68,0,0,1-1.1-1.51,8.1,8.1,0,0,1,1.1-3.39A45.47,45.47,0,0,1,476.5,110q1.42-2.13,2.53-3.87a6.46,6.46,0,0,0,1.11-2.21C480.14,103.79,480,103.73,479.82,103.73Z" transform="translate(-5.76 -0.82)"/><path class="cls-1" d="M575.09,110.52a1,1,0,0,1-.47,1l-7.11,2.85c-1,.42-2.4,1-4,1.66s-3.4,1.34-5.29,2-3.74,1.19-5.53,1.66a19,19,0,0,1-4.74.71c-2.21,0-3.32-.68-3.32-2a7.64,7.64,0,0,1,.24-1.66,5.86,5.86,0,0,1,1-2.14,27,27,0,0,1-3.47,2.14,49.51,49.51,0,0,1-4.74,2.21c-1.69.69-3.4,1.29-5.14,1.82a16.52,16.52,0,0,1-4.66.79,6.47,6.47,0,0,1-4.34-1.19,3.73,3.73,0,0,1-1.35-2.92c0-2,1.06-4.48,3.16-7.43a45.36,45.36,0,0,1,8.06-8.45,53.73,53.73,0,0,1,10.75-6.87,25.54,25.54,0,0,1,11.21-2.85,5.92,5.92,0,0,1,3.8,1,3.37,3.37,0,0,1,1.1,2.69A6.06,6.06,0,0,1,558,99.94a31.27,31.27,0,0,1-4.34,3.32,2.45,2.45,0,0,1-1,.31,1.73,1.73,0,0,1-.87-.39,1.21,1.21,0,0,1-.55-1,4.73,4.73,0,0,1,1.26-2.37A16.35,16.35,0,0,0,554,98a3.62,3.62,0,0,0,.87-2,1.24,1.24,0,0,0-.55-1,4.47,4.47,0,0,0-2.29-.39,15.63,15.63,0,0,0-6.64,2,42,42,0,0,0-7.58,4.9,43.11,43.11,0,0,0-6.25,6.08q-2.59,3.17-2.6,5.53a2.86,2.86,0,0,0,1.42,2.61,5.94,5.94,0,0,0,3.16.87,11.85,11.85,0,0,0,4-.79q2.21-.8,4.26-1.74a35.59,35.59,0,0,0,3.72-2,13.8,13.8,0,0,0,2.13-1.51l.95-.94a1.83,1.83,0,0,1,1.26-.64,2.46,2.46,0,0,1,1,.32,1.13,1.13,0,0,1,.63,1.11,11,11,0,0,0-1.1,2.21,5.55,5.55,0,0,0-.32,1.74c0,1.37.95,2.05,2.85,2.05a15.58,15.58,0,0,0,3.87-.55c1.42-.37,2.84-.79,4.26-1.27s2.74-.94,3.95-1.42,2.14-.81,2.77-1l4.74-1.89a13.8,13.8,0,0,1,1.89-.79.68.68,0,0,1,.56.39A1.5,1.5,0,0,1,575.09,110.52Z" transform="translate(-5.76 -0.82)"/><path class="cls-1" d="M619.49,98.52q0,3.32-3.4,6.63a38.14,38.14,0,0,1-8.05,5.93,62.37,62.37,0,0,1-9.56,4.34,25.06,25.06,0,0,1-7.9,1.74c-1.9,0-3.11-.39-3.64-1.18a12.46,12.46,0,0,0-1.42-1.82.9.9,0,0,1-.16-.63,2.33,2.33,0,0,1,.56-1.5,7.43,7.43,0,0,1,1.34-1.35,10.52,10.52,0,0,1,1.5-1,2.52,2.52,0,0,1,1.18-.4,1.65,1.65,0,0,1,1.51.63,10.44,10.44,0,0,1,.71,1.42,4.49,4.49,0,0,0,1.34,1.43,5,5,0,0,0,3.08.79,14.54,14.54,0,0,0,5.45-1.11,20.35,20.35,0,0,0,5.06-2.92,19.27,19.27,0,0,0,3.79-4,7.29,7.29,0,0,0,1.5-4.19,2.75,2.75,0,0,0-1.5-2.76,7.38,7.38,0,0,0-3.24-.71A24.77,24.77,0,0,0,600,99.47a99.52,99.52,0,0,0-10.67,4.42q-8.22,9.33-16.35,19.91t-16,20.93q-7.82,10.35-15.25,19.91a208,208,0,0,1-14.37,16.75A87.61,87.61,0,0,1,514,192.92q-6.4,4.35-12.09,4.35a8.08,8.08,0,0,1-5.06-1.58,5.8,5.8,0,0,1-2.05-4.9q0-6.48,4-14.14a86.35,86.35,0,0,1,10.9-15.72,172.36,172.36,0,0,1,15.8-16.12q8.93-8.06,18.8-15.56t20.07-14.06q10.19-6.56,19.35-11.3,1.74-2.69,3.16-4.74t2.53-3.48c.84-1.15,1.53-2.15,2-3,0-.42.29-.68.87-.79a9.15,9.15,0,0,1,1.5-.16q1.11.16,2.22.24c.73.05,1.1.39,1.1,1a7,7,0,0,1-1.26,2.6,18.4,18.4,0,0,1-2.21,2.93l-1,1A100.5,100.5,0,0,1,604.24,95a30.54,30.54,0,0,1,8.61-1.58,7.86,7.86,0,0,1,4.43,1.5A4.3,4.3,0,0,1,619.49,98.52Zm-38.71,9.63q-8.06,4.42-17.06,10.2T546,130.83q-8.68,6.71-16.75,14.06a140.25,140.25,0,0,0-14.06,14.69,81.4,81.4,0,0,0-9.64,14.54,30.09,30.09,0,0,0-3.63,13.51,7,7,0,0,0,.87,3c.58,1.16,1.76,1.74,3.55,1.74q3.48,0,8.93-4.35a126.32,126.32,0,0,0,12.17-11.37q6.7-7,14-16t14.46-18.33Q563.09,133,569.48,124T580.78,108.15Z" transform="translate(-5.76 -0.82)"/><path class="cls-1" d="M668.31,110.52a1.06,1.06,0,0,1-.31.79,1.73,1.73,0,0,1-.48.32q-9.79,4.43-16.43,4.42a8,8,0,0,1-6.32-2.52,41.46,41.46,0,0,1-9.24,7,20.88,20.88,0,0,1-10.2,2.84,5.37,5.37,0,0,1-3.47-1,4.38,4.38,0,0,1-1.26-3.56q0-3.17,2.92-7.74a57.42,57.42,0,0,1,7-8.85A56.56,56.56,0,0,1,639,94.88c2.9-2,5.29-3,7.19-3a2.44,2.44,0,0,1,1.5.55c.48.37.71.72.71,1s-.15.34-.47.4a6.09,6.09,0,0,1-.95.08c-1.26,0-3,.81-5.29,2.44a56.28,56.28,0,0,0-6.72,5.77,43.37,43.37,0,0,0-5.68,6.95q-2.37,3.65-2.37,6c0,2.31,1.15,3.47,3.47,3.47a13.4,13.4,0,0,0,6.4-2,36.78,36.78,0,0,0,6.71-4.82,11,11,0,0,1-1.1-5.22,15.29,15.29,0,0,1,.71-4.5,13.76,13.76,0,0,1,2-4,10.74,10.74,0,0,1,3.09-2.84,7.56,7.56,0,0,1,4-1.11q3,0,3,2.85a13.65,13.65,0,0,1-2.14,6.32A41.81,41.81,0,0,1,647.3,111a6,6,0,0,0,5.05,2.21,23.84,23.84,0,0,0,4.59-.47c1.58-.32,3.08-.66,4.5-1a29.65,29.65,0,0,0,3.71-1.19,17.39,17.39,0,0,0,2.37-1.1h.16a.51.51,0,0,1,.47.39A1.88,1.88,0,0,1,668.31,110.52Zm-16-11c0-1.48-.94-2.22-2.84-2.22-1.16,0-2.13.77-2.92,2.29a11,11,0,0,0-1.19,5.14,16.15,16.15,0,0,0,.16,2.37,8.64,8.64,0,0,0,.63,2.21,33.27,33.27,0,0,0,4.43-5.37A8.87,8.87,0,0,0,652.35,99.47Z" transform="translate(-5.76 -0.82)"/><path class="cls-1" d="M764.53,17q0,4.74-4.58,12.32a133.86,133.86,0,0,1-12.09,16.51q-7.5,8.94-17.22,18.41T710.81,82.32q-10.11,8.61-20,15.57a128.33,128.33,0,0,1-17.77,10.74q.15,5.53,2.61,7.74a8.28,8.28,0,0,0,5.76,2.21,13.61,13.61,0,0,0,6.16-1.5,20.58,20.58,0,0,0,5.38-3.87,20.13,20.13,0,0,0,3.79-5.21,12,12,0,0,0,1.42-5.37,10.48,10.48,0,0,0-.16-2.06,8.37,8.37,0,0,1-.15-1.58,1.08,1.08,0,0,1,.71-1.18,4.62,4.62,0,0,1,1.5-.24h3.39c2.06,0,4.53,0,7.43.08s6,.08,9.4.08h9.48c1,0,1.42.21,1.42.63a5.14,5.14,0,0,1-1.42,2.53,4.42,4.42,0,0,1-3.48,2h-.63c-.31,0-1.24,0-2.76-.08s-3.93-.08-7.19-.08H702a20.4,20.4,0,0,1-3.31,7.27,33.48,33.48,0,0,1-5.93,6.48,34.49,34.49,0,0,1-7.19,4.66,16.84,16.84,0,0,1-7.27,1.82q-5.52,0-8.53-3.48a13.3,13.3,0,0,1-3-9q0-8.05,4.66-18.56a132.93,132.93,0,0,1,12.32-21.57A216.75,216.75,0,0,1,701,48.67a189,189,0,0,1,19.68-19A121.93,121.93,0,0,1,740.2,16.28q9.48-5.13,16.59-5.14Q764.53,11.14,764.53,17Zm-7.42,2.69q0-4.74-5.22-4.74-5.05,0-12.8,4.66a114.41,114.41,0,0,0-16.35,12.24,205.94,205.94,0,0,0-17.3,17.3,200.43,200.43,0,0,0-15.72,19.91A140.52,140.52,0,0,0,678.11,89q-4.59,9.72-5.06,17.46a170.86,170.86,0,0,0,20.14-12.88q10.2-7.5,19.52-15.8t17.46-17a210.62,210.62,0,0,0,14.06-16.52A111.34,111.34,0,0,0,753.63,30C755.94,25.63,757.11,22.2,757.11,19.68Z" transform="translate(-5.76 -0.82)"/><path class="cls-1" d="M796.76,76.24c0,1.37-.31,2.21-1,2.53-2.95-.32-6.11-.63-9.48-1-2.84-.21-6-.4-9.56-.55s-7-.24-10.5-.24q-5.68,0-10.59.47a30.47,30.47,0,0,0-7.74,1.58,2.45,2.45,0,0,1-1-2.21c0-1.05,1.11-1.89,3.32-2.53a47.27,47.27,0,0,1,8.06-1.42c3.16-.32,6.48-.52,10-.63s6.48-.16,9-.16c3.68,0,7.11.11,10.27.32s5.79.47,7.9.79a1.46,1.46,0,0,1,1,1A5.8,5.8,0,0,1,796.76,76.24Z" transform="translate(-5.76 -0.82)"/><circle class="cls-2" cx="94.55" cy="98.4" r="94.55"/><path class="cls-3" d="M151.63,21.71a26,26,0,0,1-5.6,16.4q-3.6,5.2-6.8,7.2a8.15,8.15,0,0,1-2.6,1c-.67-.4-1-.73-1-1q10.8-15.8,10.8-21.6,0-7.8-9.2-7.8-18.4,0-44.4,19.8a193.28,193.28,0,0,0-43.2,45.2q-19.39,28.2-19.4,49.4,0,18.6,6.6,26.4,5.81,7,18.6,7,17.59,0,43.8-29,5.2-22.61,19.4-45,13.61-21.6,21.6-21.6c1.6,0,2.4.93,2.4,2.8q-.19,4.61-10.6,22.6a268.42,268.42,0,0,1-25.8,37.4,85.41,85.41,0,0,0-3.4,22.4q0,19.59,13.2,23.2c0,.93-1.07,1.4-3.2,1.4q-15.6-5.21-15.6-26.4a78.2,78.2,0,0,1,1-11.6Q72.63,167.32,53,167.31q-16.39,0-24.2-12.4a36.85,36.85,0,0,1-5.6-20.2q0-28,21.4-58a178.46,178.46,0,0,1,46.8-45.4q27.41-18.4,47-18.4Q151.44,12.91,151.63,21.71Zm-11.8,49.6c0-.4-.33-.6-1-.6q-8.21,7-16.9,22.2a160.33,160.33,0,0,0-13.9,31.8,291.69,291.69,0,0,0,22.2-31.8Q139.23,77.51,139.83,71.31Z" transform="translate(-5.76 -0.82)"/><path class="cls-3" d="M146.83,155.91a5.57,5.57,0,0,1-2.4,4.2,7.05,7.05,0,0,1-4.2,2c-2.53,0-3.93-1.34-4.2-4a5.14,5.14,0,0,1,2.2-4.4,7.22,7.22,0,0,1,4.2-1.6Q146.83,152.11,146.83,155.91Z" transform="translate(-5.76 -0.82)"/></svg>